<svg width="50" height="50" viewBox="0 0 50 50" fill="none" xmlns="http://www.w3.org/2000/svg">
<path d="M35.4548 28.2058C32.7441 28.2058 30.5388 30.4111 30.5388 33.1218C30.5388 35.8325 32.7441 38.0378 35.4548 38.0378C38.166 38.0378 40.3708 35.8325 40.3708 33.1218C40.3708 30.4111 38.1655 28.2058 35.4548 28.2058ZM35.4548 35.5798C34.0992 35.5798 32.9968 34.4773 32.9968 33.1218C32.9968 31.7662 34.0992 30.6638 35.4548 30.6638C36.8103 30.6638 37.9128 31.7662 37.9128 33.1218C37.9128 34.4774 36.8103 35.5798 35.4548 35.5798Z" fill="#231F1C"/>
<path d="M18.6587 28.2058C15.9479 28.2058 13.7427 30.4111 13.7427 33.1218C13.7427 35.8325 15.9479 38.0378 18.6587 38.0378C21.3694 38.0378 23.5746 35.8325 23.5746 33.1218C23.5746 30.4111 21.3694 28.2058 18.6587 28.2058ZM18.6587 35.5798C17.3031 35.5798 16.2007 34.4773 16.2007 33.1218C16.2007 31.7662 17.3031 30.6638 18.6587 30.6638C20.0138 30.6638 21.1166 31.7662 21.1166 33.1218C21.1166 34.4774 20.0142 35.5798 18.6587 35.5798Z" fill="#231F1C"/>
<path d="M38.7654 14.1347C38.5564 13.7197 38.1316 13.4579 37.667 13.4579H31.1943V15.9159H36.9091L40.2557 22.5721L42.4523 21.4676L38.7654 14.1347Z" fill="#231F1C"/>
<path d="M31.7679 31.9338H22.4685V34.3918H31.7679V31.9338Z" fill="#231F1C"/>
<path d="M14.9716 31.9338H10.7111C10.0323 31.9338 9.48218 32.484 9.48218 33.1628C9.48218 33.8416 10.0324 34.3917 10.7111 34.3917H14.9717C15.6505 34.3917 16.2006 33.8416 16.2006 33.1628C16.2006 32.4839 15.6504 31.9338 14.9716 31.9338Z" fill="#231F1C"/>
<path d="M44.7419 24.4206L42.3245 21.3071C42.0923 21.0072 41.7338 20.8319 41.354 20.8319H32.4233V12.229C32.4233 11.5501 31.8731 11 31.1944 11H10.7111C10.0323 11 9.48218 11.5502 9.48218 12.229C9.48218 12.9077 10.0324 13.4579 10.7111 13.4579H29.9653V22.0608C29.9653 22.7397 30.5155 23.2898 31.1943 23.2898H40.7522L42.542 25.5954V31.9337H39.1417C38.4629 31.9337 37.9128 32.4839 37.9128 33.1627C37.9128 33.8415 38.463 34.3916 39.1417 34.3916H43.7709C44.4498 34.3916 44.9999 33.8414 45 33.1627V25.1744C45 24.9015 44.909 24.6361 44.7419 24.4206Z" fill="#231F1C"/>
<path d="M14.8897 25.7069H9.23628C8.55744 25.7069 8.00732 26.2571 8.00732 26.9359C8.00732 27.6147 8.55751 28.1648 9.23628 28.1648H14.8896C15.5684 28.1648 16.1186 27.6146 16.1186 26.9359C16.1186 26.2571 15.5684 25.7069 14.8897 25.7069Z" fill="#231F1C"/>
<path d="M17.7164 20.8728H7.22896C6.55019 20.8728 6 21.423 6 22.1018C6 22.7807 6.55019 23.3308 7.22896 23.3308H17.7164C18.3952 23.3308 18.9453 22.7806 18.9453 22.1018C18.9453 21.4231 18.3952 20.8728 17.7164 20.8728Z" fill="#231F1C"/>
<path d="M19.7237 16.0388H9.23628C8.55744 16.0388 8.00732 16.589 8.00732 17.2678C8.00732 17.9466 8.55751 18.4967 9.23628 18.4967H19.7237C20.4025 18.4967 20.9527 17.9465 20.9527 17.2678C20.9527 16.589 20.4025 16.0388 19.7237 16.0388Z" fill="#231F1C"/>
</svg>
