<svg width="50" height="50" viewBox="0 0 50 50" fill="none" xmlns="http://www.w3.org/2000/svg">
<path d="M37.8254 27.8614C37.5707 27.2315 36.8534 26.927 36.2234 27.1818C35.5934 27.4365 35.2891 28.1537 35.5438 28.7838L36.993 32.3685L32.6889 30.4712C32.3774 30.3339 32.0228 30.3317 31.7097 30.4653C30.2388 31.0929 28.663 31.4111 27.0263 31.4111C20.4388 31.4111 16.0137 26.2533 16.0137 21.436C16.0137 15.9357 20.9539 11.4609 27.0263 11.4609C33.0987 11.4609 38.0389 15.9357 38.0389 21.436C38.0389 21.8651 37.9989 22.379 37.9293 22.8457C37.8291 23.5178 38.2926 24.144 38.9648 24.2442C39.637 24.3448 40.2631 23.8809 40.3633 23.2088C40.4514 22.6188 40.4998 21.9892 40.4998 21.436C40.4998 18.0935 39.0844 14.9572 36.5142 12.6048C33.9744 10.2802 30.6048 9 27.0263 9C23.4477 9 20.0782 10.2802 17.5384 12.6048C15.2416 14.7069 13.8679 17.4353 13.6015 20.3773C10.7125 22.2904 9.00004 25.356 9.00004 28.6581C9.00004 30.7209 9.64991 32.6781 10.887 34.3624L9.08974 38.8082C8.90203 39.2724 9.01444 39.8042 9.37404 40.1527C9.60838 40.38 9.91716 40.4999 10.2307 40.4999C10.3983 40.4998 10.5672 40.4656 10.7268 40.3953L15.9088 38.1109C17.2124 38.5961 18.5903 38.8418 20.0126 38.8418C20.0434 38.8418 20.0736 38.8394 20.1038 38.8372C22.1609 38.8216 24.1609 38.2805 25.893 37.2679C27.4445 36.3608 28.7207 35.1147 29.6154 33.6432C30.489 33.4863 31.3428 33.2493 32.1715 32.9325L38.773 35.8426C38.9327 35.9129 39.1015 35.9472 39.2691 35.9472C39.5827 35.9471 39.8915 35.8272 40.1258 35.6C40.4854 35.2514 40.5978 34.7198 40.4101 34.2555L37.8254 27.8614ZM20.0127 36.3778C19.9959 36.3778 19.9796 36.3796 19.9629 36.3803C18.7065 36.3739 17.4972 36.1269 16.3678 35.6451C16.0547 35.5114 15.7001 35.5135 15.3886 35.6509L12.507 36.9211L13.4366 34.6217C13.6084 34.1966 13.5296 33.7112 13.2322 33.3623C12.0734 32.0028 11.461 30.3762 11.461 28.6581C11.461 26.6918 12.2881 24.8287 13.7354 23.416C14.186 25.8723 15.4574 28.222 17.3752 30.0678C19.7618 32.3647 22.9185 33.6953 26.3272 33.8555C24.7269 35.4308 22.4367 36.3778 20.0127 36.3778Z" fill="#231F1C"/>
<path d="M26.9647 22.7196C27.6443 22.7196 28.1952 22.1688 28.1952 21.4892C28.1952 20.8096 27.6443 20.2587 26.9647 20.2587C26.2852 20.2587 25.7343 20.8096 25.7343 21.4892C25.7343 22.1688 26.2852 22.7196 26.9647 22.7196Z" fill="#231F1C"/>
<path d="M31.8866 22.7196C32.5662 22.7196 33.117 22.1688 33.117 21.4892C33.117 20.8096 32.5662 20.2587 31.8866 20.2587C31.207 20.2587 30.6561 20.8096 30.6561 21.4892C30.6561 22.1688 31.207 22.7196 31.8866 22.7196Z" fill="#231F1C"/>
<path d="M22.043 22.7196C22.7225 22.7196 23.2734 22.1688 23.2734 21.4892C23.2734 20.8096 22.7225 20.2587 22.043 20.2587C21.3634 20.2587 20.8125 20.8096 20.8125 21.4892C20.8125 22.1688 21.3634 22.7196 22.043 22.7196Z" fill="#231F1C"/>
</svg>
