<svg width="50" height="50" viewBox="0 0 50 50" fill="none" xmlns="http://www.w3.org/2000/svg">
<path fill-rule="evenodd" clip-rule="evenodd" d="M43.8574 39.2H40.3535V26.7333C40.3535 26.1074 39.8419 25.6 39.2109 25.6H33.498V13.5C33.498 12.8741 32.9865 12.5 32.3555 12.5H18.6445C18.0135 12.5 17.502 12.8741 17.502 13.5V25.6H11.7891C11.1581 25.6 10.6465 26.1074 10.6465 26.7333V39.2H7.14258C6.51157 39.2 6 39.7074 6 40.3333V44.8667C6 45.4926 6.51157 46 7.14258 46H8.36133H42.6387H43.8574C44.4884 46 45 45.4926 45 44.8667V40.3333C45 39.7074 44.4884 39.2 43.8574 39.2ZM26.6426 39.2H38.5V27.5624H35.7832V32.0222C35.7832 32.4402 35.5513 32.8242 35.1798 33.0214C35.0108 33.1111 34.8256 33.1556 34.6407 33.1556C34.419 33.1556 34.1981 33.0916 34.0069 32.9652L32.3555 31.8732L30.7041 32.9652C30.3535 33.197 29.9027 33.2186 29.5312 33.0214C29.1597 32.8242 28.9277 32.4402 28.9277 32.0222V27.5H26.6426V39.2ZM34 30L34.0069 27.5H30.7041V29.9046L31.7217 29.5681C31.9136 29.4412 32.1346 29.3778 32.3555 29.3778C32.5764 29.3778 32.7973 29.4412 32.9892 29.5681L34 30ZM27.1514 17V14.5H23.8486V17L24.8662 15.9681C25.0581 15.8412 25.2791 15.7778 25.5 15.7778C25.7209 15.7778 25.9419 15.8412 26.1337 15.9681L27.1514 17ZM22.0723 14.5H19.2783V25.6H31.7217V14.5H28.9277V18.4222C28.9277 18.8402 28.6958 19.2242 28.3243 19.4214C28.1554 19.5111 27.9701 19.5556 27.7852 19.5556C27.5636 19.5556 27.3426 19.4916 27.1514 19.3652L25.5 18.2732L23.8486 19.3652C23.4981 19.597 23.0473 19.6186 22.6757 19.4214C22.3042 19.2242 22.0723 18.8402 22.0723 18.4222V14.5ZM20.2959 29.9046V27.5H16.9931V29.9046L18.0108 29.5681C18.2027 29.4412 18.4236 29.3778 18.6445 29.3778C18.8654 29.3778 19.0864 29.4412 19.2783 29.5681L20.2959 29.9046ZM15.2168 27.5H12.5V39.2H24.3574V27.5624L22.0723 27.5V32.0222C22.0723 32.4402 21.8403 32.8242 21.4688 33.0214C21.2999 33.1111 21.1146 33.1556 20.9298 33.1556C20.7081 33.1556 20.4871 33.0916 20.2959 32.9652L18.6445 31.8732L16.9931 32.9652C16.6426 33.197 16.1917 33.2186 15.8202 33.0214C15.4487 32.8242 15.2168 32.4402 15.2168 32.0222V27.5ZM8 44H43V41H8V44Z" fill="#231F1C"/>
</svg>
