<svg width="20" height="20" viewBox="0 0 20 20" fill="none" xmlns="http://www.w3.org/2000/svg">
<path d="M15.85 5.50062C15.7946 5.49491 15.7388 5.49491 15.6835 5.50062H4.30845C4.23555 5.50174 4.16313 5.51267 4.09314 5.53312L9.96345 11.3791L15.85 5.50062Z" fill="#231F1C"/>
<path d="M16.4513 6.06543L10.5363 11.9561C10.384 12.1074 10.1781 12.1923 9.96344 12.1923C9.74879 12.1923 9.54286 12.1074 9.39062 11.9561L3.52844 6.11012C3.51042 6.17635 3.50086 6.2446 3.5 6.31324V14.4382C3.5 14.6537 3.5856 14.8604 3.73798 15.0128C3.89035 15.1651 4.09701 15.2507 4.3125 15.2507H15.6875C15.903 15.2507 16.1097 15.1651 16.262 15.0128C16.4144 14.8604 16.5 14.6537 16.5 14.4382V6.31324C16.4968 6.2286 16.4803 6.14499 16.4513 6.06543ZM4.86906 14.4382H4.30438V13.8573L7.25781 10.9282L7.83063 11.5011L4.86906 14.4382ZM15.6794 14.4382H15.1106L12.1491 11.5011L12.7219 10.9282L15.6753 13.8573L15.6794 14.4382Z" fill="#231F1C"/>
</svg>
