<svg width="20" height="20" viewBox="0 0 20 20" fill="none" xmlns="http://www.w3.org/2000/svg">
<path d="M15.85 7.29566C15.7946 7.28996 15.7388 7.28996 15.6835 7.29566H4.30845C4.23555 7.29678 4.16313 7.30772 4.09314 7.32816L9.96345 13.1741L15.85 7.29566Z" fill="white"/>
<path d="M16.4513 7.86047L10.5363 13.7511C10.384 13.9024 10.1781 13.9874 9.96344 13.9874C9.74879 13.9874 9.54286 13.9024 9.39062 13.7511L3.52844 7.90516C3.51042 7.9714 3.50086 8.03965 3.5 8.10829V16.2333C3.5 16.4488 3.5856 16.6554 3.73798 16.8078C3.89035 16.9602 4.09701 17.0458 4.3125 17.0458H15.6875C15.903 17.0458 16.1097 16.9602 16.262 16.8078C16.4144 16.6554 16.5 16.4488 16.5 16.2333V8.10829C16.4968 8.02365 16.4803 7.94003 16.4513 7.86047ZM4.86906 16.2333H4.30438V15.6523L7.25781 12.7233L7.83063 13.2961L4.86906 16.2333ZM15.6794 16.2333H15.1106L12.1491 13.2961L12.7219 12.7233L15.6753 15.6523L15.6794 16.2333Z" fill="white"/>
</svg>
