<svg width="20" height="20" viewBox="0 0 20 20" fill="none" xmlns="http://www.w3.org/2000/svg">
<path d="M10.5 6C7.46257 6 5 8.46257 5 11.5C5 14.5374 7.46257 17 10.5 17C13.5374 17 16 14.5374 16 11.5C16 8.46257 13.5374 6 10.5 6ZM13.0385 12.3462H10.5C10.3878 12.3462 10.2802 12.3016 10.2008 12.2222C10.1215 12.1429 10.0769 12.0353 10.0769 11.9231V8.11538C10.0769 8.00318 10.1215 7.89557 10.2008 7.81622C10.2802 7.73688 10.3878 7.69231 10.5 7.69231C10.6122 7.69231 10.7198 7.73688 10.7992 7.81622C10.8785 7.89557 10.9231 8.00318 10.9231 8.11538V11.5H13.0385C13.1507 11.5 13.2583 11.5446 13.3376 11.6239C13.417 11.7033 13.4615 11.8109 13.4615 11.9231C13.4615 12.0353 13.417 12.1429 13.3376 12.2222C13.2583 12.3016 13.1507 12.3462 13.0385 12.3462Z" fill="white"/>
</svg>
