<svg width="20" height="20" viewBox="0 0 20 20" fill="none" xmlns="http://www.w3.org/2000/svg">
<path d="M16 10.9C16 10.2565 15.8707 9.61935 15.6194 9.02485C15.3681 8.43036 14.9998 7.89018 14.5355 7.43518C14.0712 6.98017 13.52 6.61924 12.9134 6.37299C12.3068 6.12674 11.6566 6 11 6C10.3434 6 9.69321 6.12674 9.08658 6.37299C8.47995 6.61924 7.92876 6.98017 7.46447 7.43518C7.00017 7.89018 6.63188 8.43036 6.3806 9.02485C6.12933 9.61935 6 10.2565 6 10.9C6 11.8709 6.29286 12.7739 6.78929 13.5355H6.78357C8.46929 16.122 11 20 11 20L15.2164 13.5355H15.2114C15.726 12.749 15.9997 11.8343 16 10.9ZM11 13C10.4317 13 9.88663 12.7788 9.48477 12.3849C9.08291 11.9911 8.85714 11.457 8.85714 10.9C8.85714 10.343 9.08291 9.8089 9.48477 9.41508C9.88663 9.02125 10.4317 8.8 11 8.8C11.5683 8.8 12.1134 9.02125 12.5152 9.41508C12.9171 9.8089 13.1429 10.343 13.1429 10.9C13.1429 11.457 12.9171 11.9911 12.5152 12.3849C12.1134 12.7788 11.5683 13 11 13Z" fill="white"/>
</svg>
