<svg width="155" height="45" viewBox="0 0 155 45" fill="none" xmlns="http://www.w3.org/2000/svg">
<path d="M1.26 34.8918V34.5558L2.961 33.7158V22.2078L1.26 21.3678V21.0318H6.867V21.3678L5.166 22.2078V33.7158L6.867 34.5558V34.8918H1.26ZM5.166 27.8148L10.962 22.0818L9.471 21.3678V21.0318H14.007V21.3678L12.684 21.8928L7.308 27.1638L13.776 33.9888L15.099 34.5558V34.8918H11.676L5.166 27.8148ZM15.6622 34.8918V34.5558L16.7332 33.9888L21.3952 23.0268H22.4872L27.1072 33.9468L28.3462 34.5558V34.8918H23.4742V34.5558L24.9442 33.9468L23.6422 30.8388H19.3162L18.0352 33.9678L19.5682 34.5558V34.8918H15.6622ZM19.7572 29.7888H23.2012L21.4582 25.6098L19.7572 29.7888ZM30.2375 34.8918V34.5558L31.7705 33.8628V24.1608L30.2375 23.4678V23.1318H35.2985C36.8665 23.1318 38.0565 23.4048 38.8685 23.9508C39.6805 24.4828 40.0865 25.3158 40.0865 26.4498C40.0865 27.1498 39.8695 27.7588 39.4355 28.2768C39.0015 28.7948 38.3995 29.1938 37.6295 29.4738C36.8735 29.7398 35.9985 29.8728 35.0045 29.8728H33.8495V33.8628L35.6135 34.5558V34.8918H30.2375ZM33.8495 24.1818V28.8438H34.8785C35.8165 28.8438 36.5585 28.6408 37.1045 28.2348C37.6505 27.8148 37.9235 27.2338 37.9235 26.4918C37.9235 25.6658 37.6435 25.0778 37.0835 24.7278C36.5375 24.3638 35.7605 24.1818 34.7525 24.1818H33.8495ZM40.0665 34.8918V34.5558L41.1375 33.9888L45.7995 23.0268H46.8915L51.5115 33.9468L52.7505 34.5558V34.8918H47.8785V34.5558L49.3485 33.9468L48.0465 30.8388H43.7205L42.4395 33.9678L43.9725 34.5558V34.8918H40.0665ZM44.1615 29.7888H47.6055L45.8625 25.6098L44.1615 29.7888ZM56.2746 34.8918V34.5558L58.1646 33.8628V24.1818H55.0776L53.9646 26.7438H53.6286V23.1318H64.8006V26.7438H64.4646L63.3306 24.1818H60.2436V33.8628L62.1546 34.5558V34.8918H56.2746ZM65.6901 30.2298V28.7598H71.4651V30.2298H65.6901ZM80.9771 35.1018C79.5351 35.1018 78.2891 34.8078 77.2391 34.2198C76.1891 33.6318 75.3771 32.8268 74.8031 31.8048C74.2291 30.7828 73.9421 29.6208 73.9421 28.3188C73.9421 27.3108 74.1381 26.3588 74.5301 25.4628C74.9221 24.5668 75.4541 23.7688 76.1261 23.0688C76.8121 22.3688 77.5961 21.8228 78.4781 21.4308C79.3601 21.0248 80.2981 20.8218 81.2921 20.8218C82.0061 20.8218 82.6081 20.8708 83.0981 20.9688C83.5881 21.0528 84.0221 21.1718 84.4001 21.3258C84.7921 21.4658 85.1841 21.6338 85.5761 21.8298L85.7021 25.5678H85.3241L83.8751 22.8378C83.3991 22.5018 82.9651 22.2568 82.5731 22.1028C82.1951 21.9488 81.7681 21.8718 81.2921 21.8718C80.3261 21.8718 79.4581 22.1238 78.6881 22.6278C77.9181 23.1318 77.3091 23.8318 76.8611 24.7278C76.4271 25.6098 76.2101 26.6318 76.2101 27.7938C76.2101 29.0958 76.4201 30.2158 76.8401 31.1538C77.2741 32.0778 77.8551 32.7848 78.5831 33.2748C79.3111 33.7648 80.1161 34.0098 80.9981 34.0098C81.7261 34.0098 82.3351 33.9118 82.8251 33.7158C83.3291 33.5198 83.7771 33.2888 84.1691 33.0228L85.5761 30.6708H85.9331L85.6811 34.0518C85.0651 34.3598 84.4071 34.6118 83.7071 34.8078C83.0071 35.0038 82.0971 35.1018 80.9771 35.1018ZM88.9924 34.8918V34.5558L90.5044 33.8628V24.1608L88.9924 23.4678V23.1318H98.2324V26.1558H97.8964L96.8044 24.1818H92.5834V28.2768H95.6494L96.3634 26.8278H96.6994V30.7548H96.3634L95.6494 29.3268H92.5834V33.8418H97.2664L98.4214 31.4688H98.7574V34.8918H88.9924ZM101.4 34.8918V34.5558L102.933 33.8628V24.1608L101.4 23.4678V23.1318H106.461C108.029 23.1318 109.219 23.4048 110.031 23.9508C110.843 24.4828 111.249 25.3158 111.249 26.4498C111.249 27.1498 111.032 27.7588 110.598 28.2768C110.164 28.7948 109.562 29.1938 108.792 29.4738C108.036 29.7398 107.161 29.8728 106.167 29.8728H105.012V33.8628L106.776 34.5558V34.8918H101.4ZM105.012 24.1818V28.8438H106.041C106.979 28.8438 107.721 28.6408 108.267 28.2348C108.813 27.8148 109.086 27.2338 109.086 26.4918C109.086 25.6658 108.806 25.0778 108.246 24.7278C107.7 24.3638 106.923 24.1818 105.915 24.1818H105.012ZM113.52 34.8918V34.5558L115.032 33.8628V24.1608L113.52 23.4678V23.1318H118.182C119.638 23.1318 120.751 23.3558 121.521 23.8038C122.305 24.2518 122.697 24.9238 122.697 25.8198C122.697 26.4918 122.487 27.0728 122.067 27.5628C121.647 28.0528 121.066 28.3958 120.324 28.5918C121.402 28.7458 122.249 29.0748 122.865 29.5788C123.481 30.0828 123.789 30.7268 123.789 31.5108C123.789 32.1548 123.579 32.7358 123.159 33.2538C122.739 33.7578 122.151 34.1568 121.395 34.4508C120.639 34.7448 119.764 34.8918 118.77 34.8918H113.52ZM117.72 24.1818H117.111V28.2768H117.762C118.588 28.2768 119.26 28.1158 119.778 27.7938C120.31 27.4578 120.576 26.9258 120.576 26.1978C120.576 25.5398 120.331 25.0428 119.841 24.7068C119.351 24.3568 118.644 24.1818 117.72 24.1818ZM118.392 29.3268H117.111V33.8418H118.539C119.449 33.8418 120.184 33.6598 120.744 33.2958C121.318 32.9318 121.605 32.3578 121.605 31.5738C121.605 30.7338 121.318 30.1528 120.744 29.8308C120.17 29.4948 119.386 29.3268 118.392 29.3268ZM126.03 34.8918V34.5558L127.542 33.8628V24.1608L126.03 23.4678V23.1318H131.154V23.4678L129.621 24.1608V31.9098L135.732 24.8958V24.1608L134.199 23.4678V23.1318H139.302V23.4678L137.811 24.1608V33.8628L139.302 34.5558V34.8918H134.199V34.5558L135.732 33.8628V26.2188L129.621 33.2328V33.8628L131.154 34.5558V34.8918H126.03ZM148.268 35.1018C147.05 35.1018 145.958 34.8498 144.992 34.3458C144.04 33.8418 143.291 33.1488 142.745 32.2668C142.199 31.3848 141.926 30.3908 141.926 29.2848C141.926 28.3468 142.101 27.4928 142.451 26.7228C142.815 25.9388 143.305 25.2668 143.921 24.7068C144.537 24.1328 145.244 23.6918 146.042 23.3838C146.84 23.0618 147.68 22.9008 148.562 22.9008C149.164 22.9008 149.675 22.9428 150.095 23.0268C150.529 23.0968 150.914 23.2018 151.25 23.3418C151.6 23.4818 151.943 23.6288 152.279 23.7828L152.363 26.7858H152.027L150.809 24.6648C150.459 24.3988 150.102 24.2168 149.738 24.1188C149.388 24.0068 148.996 23.9508 148.562 23.9508C147.68 23.9508 146.896 24.1678 146.21 24.6018C145.538 25.0358 145.006 25.6308 144.614 26.3868C144.236 27.1428 144.047 27.9968 144.047 28.9488C144.047 30.5868 144.453 31.8468 145.265 32.7288C146.091 33.6108 147.197 34.0518 148.583 34.0518C149.017 34.0518 149.402 34.0238 149.738 33.9678C150.074 33.8978 150.396 33.7788 150.704 33.6108L152.216 31.3638H152.552L152.363 34.1988C151.859 34.4648 151.278 34.6818 150.62 34.8498C149.976 35.0178 149.192 35.1018 148.268 35.1018Z" fill="white"/>
<path d="M52.5135 8.13513H0.189148H52.5135Z" fill="white" stroke="white" stroke-miterlimit="10"/>
<path d="M154.784 8.13513H102.459H154.784Z" fill="white" stroke="white" stroke-miterlimit="10"/>
<path d="M89.3784 3.42621L83.4495 6.05747L71.3186 1L65.5946 3.27814" stroke="white" stroke-miterlimit="10"/>
<path d="M77.4797 3.57435L83.4495 6.05752L89.3784 3.42627" stroke="#FFC82E" stroke-miterlimit="10"/>
<path d="M89.3784 6.84345L83.4495 9.4747L71.3186 4.41724L65.5946 6.69538" stroke="white" stroke-miterlimit="10"/>
<path d="M77.4797 6.99159L83.4495 9.47476L89.3784 6.84351" stroke="#FFC82E" stroke-miterlimit="10"/>
<path d="M89.3784 10.2606L83.4495 12.8918L71.3186 7.83435L65.5946 10.1125" stroke="white" stroke-miterlimit="10"/>
<path d="M77.4797 10.4088L83.4495 12.892L89.3784 10.2607" stroke="#FFC82E" stroke-miterlimit="10"/>
</svg>
