<svg width="151" height="147" viewBox="0 0 151 147" fill="none" xmlns="http://www.w3.org/2000/svg">
<mask id="mask0" mask-type="alpha" maskUnits="userSpaceOnUse" x="0" y="0" width="151" height="147">
<rect y="124.52" width="180" height="30" transform="rotate(-43.7711 0 124.52)" fill="#FFC82E"/>
</mask>
<g mask="url(#mask0)">
<rect x="35" y="41.0001" width="470" height="210" fill="#FFC82E"/>
<path d="M62.1416 90.9532L61.4934 91.5776C61.4185 91.6497 61.34 91.6893 61.2578 91.6962C61.1757 91.7032 61.0953 91.689 61.0168 91.6536L58.9974 90.7163L56.219 93.3929L57.0802 95.4458C57.1129 95.5143 57.1242 95.5923 57.114 95.6798C57.1039 95.7673 57.0614 95.8471 56.9865 95.9193L56.3427 96.5395L52.8535 87.9621L53.7005 87.1463L62.1416 90.9532ZM55.8695 92.5631L58.1813 90.3361L54.7822 88.7535C54.6784 88.7091 54.5634 88.6532 54.4374 88.5858C54.3142 88.5156 54.1827 88.4396 54.0428 88.3578C54.1222 88.4979 54.1946 88.6336 54.2601 88.7649C54.3256 88.8906 54.3786 89.0062 54.4191 89.1116L55.8695 92.5631ZM60.8631 85.4782L61.5069 84.858C61.6366 84.7331 61.7266 84.6075 61.7771 84.4811C61.8304 84.352 61.8448 84.1854 61.8203 83.9812L61.3428 80.2424C61.3194 80.1316 61.3171 80.0255 61.336 79.924C61.3549 79.8168 61.4062 79.723 61.4897 79.6426L62.1941 78.964L62.7749 83.3116C62.8028 83.4847 62.8025 83.6488 62.7742 83.8038C62.7487 83.9561 62.6993 84.1037 62.6259 84.2466C62.8174 84.1399 63.008 84.0812 63.1978 84.0706C63.3847 84.0571 63.6021 84.081 63.8499 84.1422L68.3234 84.998L67.5715 85.7223C67.488 85.8028 67.3952 85.8506 67.2931 85.8656C67.191 85.875 67.0725 85.8615 66.9374 85.825L63.1143 85.1341C62.9311 85.0939 62.7755 85.0938 62.6475 85.1339C62.5167 85.171 62.3763 85.2618 62.2266 85.4061L61.4833 86.1221L64.214 88.9567L63.3801 89.7601L57.4149 83.568L58.2489 82.7646L60.8631 85.4782ZM69.6102 83.7584L63.6451 77.5662L64.4834 76.7587L69.8158 82.294L72.9097 79.3135L67.5773 73.7782L68.4199 72.9664L73.7523 78.5018L74.6987 77.5902L76.5427 79.5044C76.6149 79.5793 76.6472 79.6648 76.6398 79.7608C76.6352 79.8541 76.594 79.9382 76.5163 80.0131L76.015 80.496L74.5622 78.9879L69.6102 83.7584ZM75.0931 67.0462C75.0696 66.9411 75.0632 66.8306 75.0738 66.7148C75.0844 66.599 75.1315 66.5009 75.2151 66.4204L75.8373 65.821L81.8025 72.0131L80.9642 72.8207L76.7265 68.4218C76.61 68.3008 76.4908 68.1713 76.3689 68.0332C76.2442 67.8923 76.1198 67.7372 75.9957 67.568C76.0716 67.7448 76.1348 67.9171 76.1854 68.085C76.2362 68.2472 76.2744 68.3964 76.3001 68.5327L77.5299 75.6209C77.5534 75.726 77.5598 75.8364 77.5492 75.9522C77.5385 76.068 77.4914 76.1661 77.4079 76.2466L76.7856 76.846L70.8205 70.6539L71.6588 69.8463L75.9006 74.2495C76.0199 74.3734 76.1419 74.5058 76.2666 74.6468C76.3885 74.7848 76.5129 74.9399 76.6398 75.112C76.5611 74.9323 76.4964 74.7614 76.4457 74.5992C76.3951 74.4313 76.3541 74.2764 76.3228 74.1344L75.0931 67.0462ZM87.1492 66.8625L84.5808 64.1963L83.6906 65.0539C83.6214 65.1261 83.562 65.2 83.5125 65.2754C83.463 65.3509 83.4247 65.435 83.3975 65.5279C83.3703 65.6207 83.3556 65.7265 83.3534 65.8453C83.3512 65.9584 83.3616 66.0873 83.3843 66.232L83.8804 69.4366C83.9173 69.5787 83.9175 69.7202 83.8809 69.8609C83.8416 69.9988 83.7614 70.126 83.6404 70.2426L83.0095 70.8503L82.4356 67.046C82.3642 66.626 82.3939 66.2503 82.5245 65.9189C82.2324 66.1115 81.9469 66.2476 81.6682 66.3273C81.3895 66.407 81.1216 66.4373 80.8645 66.4184C80.6076 66.3938 80.3628 66.3213 80.1302 66.201C79.8977 66.0806 79.6815 65.9168 79.4817 65.7094C79.2264 65.4443 79.0422 65.158 78.9291 64.8504C78.8189 64.54 78.7825 64.2196 78.8198 63.8893C78.8572 63.5534 78.9696 63.2146 79.157 62.873C79.3445 62.5257 79.6111 62.1855 79.9568 61.8525L82.018 59.8669L87.9831 66.0591L87.1492 66.8625ZM80.3029 64.91C80.4694 65.0828 80.6437 65.2148 80.8259 65.3059C81.0082 65.3913 81.1984 65.4302 81.3966 65.4226C81.5976 65.4122 81.8081 65.3511 82.028 65.2392C82.248 65.1217 82.4776 64.9478 82.7167 64.7174L83.9439 63.5352L81.8251 61.3358L80.5979 62.518C80.3588 62.7483 80.1792 62.9713 80.0592 63.1869C79.9392 63.4024 79.8716 63.6119 79.8565 63.8153C79.8386 64.0158 79.869 64.2088 79.9476 64.3941C80.0262 64.5738 80.1447 64.7458 80.3029 64.91Z" fill="#1B1A19"/>
</g>
</svg>
