<svg width="20" height="20" viewBox="0 0 20 20" fill="none" xmlns="http://www.w3.org/2000/svg">
<path d="M15 10.9C15 10.2565 14.8707 9.61935 14.6194 9.02485C14.3681 8.43036 13.9998 7.89018 13.5355 7.43518C13.0712 6.98017 12.52 6.61924 11.9134 6.37299C11.3068 6.12674 10.6566 6 10 6C9.34339 6 8.69321 6.12674 8.08658 6.37299C7.47995 6.61924 6.92876 6.98017 6.46447 7.43518C6.00017 7.89018 5.63188 8.43036 5.3806 9.02485C5.12933 9.61935 5 10.2565 5 10.9C5 11.8709 5.29286 12.7739 5.78929 13.5355H5.78357C7.46929 16.122 10 20 10 20L14.2164 13.5355H14.2114C14.726 12.749 14.9997 11.8343 15 10.9ZM10 13C9.43168 13 8.88663 12.7788 8.48477 12.3849C8.08291 11.9911 7.85714 11.457 7.85714 10.9C7.85714 10.343 8.08291 9.8089 8.48477 9.41508C8.88663 9.02125 9.43168 8.8 10 8.8C10.5683 8.8 11.1134 9.02125 11.5152 9.41508C11.9171 9.8089 12.1429 10.343 12.1429 10.9C12.1429 11.457 11.9171 11.9911 11.5152 12.3849C11.1134 12.7788 10.5683 13 10 13Z" fill="#231F1C"/>
</svg>
