<svg width="50" height="50" viewBox="0 0 50 50" fill="none" xmlns="http://www.w3.org/2000/svg">
<path d="M22.1196 31.2368L26.677 17.5642C26.8458 17.0577 26.5721 16.5102 26.0656 16.3413C25.5591 16.1725 25.0115 16.4462 24.8427 16.9528L20.2852 30.6253C20.1164 31.1318 20.3901 31.6794 20.8967 31.8482C20.9981 31.882 21.1012 31.898 21.2025 31.898C21.6073 31.8981 21.9845 31.6419 22.1196 31.2368Z" fill="#231F1C"/>
<path d="M28.9501 26.9953C30.5493 26.9953 31.8504 25.6942 31.8504 24.0949C31.8504 22.4956 30.5493 21.1945 28.9501 21.1945C27.3508 21.1945 26.0497 22.4956 26.0497 24.0949C26.0497 25.6942 27.3508 26.9953 28.9501 26.9953ZM28.9501 23.1281C29.4831 23.1281 29.9168 23.5618 29.9168 24.0949C29.9168 24.628 29.4831 25.0617 28.9501 25.0617C28.417 25.0617 27.9833 24.628 27.9833 24.0949C27.9833 23.5618 28.417 23.1281 28.9501 23.1281Z" fill="#231F1C"/>
<path d="M18.0121 21.1945C16.4128 21.1945 15.1117 22.4956 15.1117 24.0949C15.1117 25.6942 16.4128 26.9953 18.0121 26.9953C19.6113 26.9953 20.9124 25.6942 20.9124 24.0949C20.9124 22.4956 19.6114 21.1945 18.0121 21.1945ZM18.0121 25.0617C17.479 25.0617 17.0453 24.628 17.0453 24.0949C17.0453 23.5618 17.479 23.1281 18.0121 23.1281C18.5451 23.1281 18.9789 23.5618 18.9789 24.0949C18.9789 24.628 18.5452 25.0617 18.0121 25.0617Z" fill="#231F1C"/>
<path d="M41.8064 20.9882L38.4351 16.4931L38.5666 15.5725C38.6096 15.2712 38.5084 14.9673 38.2931 14.7521L36.2423 12.7012L38.2931 10.6504C38.6706 10.2729 38.6706 9.66069 38.2931 9.28312C37.9156 8.90563 37.3034 8.90563 36.9258 9.28312L34.875 11.334L32.8241 9.28312C32.609 9.06792 32.305 8.96698 32.0038 9.00965L22.433 10.3769C22.2259 10.4065 22.0341 10.5024 21.8861 10.6504L10.0366 22.4999C8.65445 23.882 8.65445 26.131 10.0366 27.5131L20.0631 37.5396C20.2682 37.7447 20.4927 37.9187 20.7304 38.0629V38.4549C20.7304 40.4095 22.3206 41.9998 24.2753 41.9998H38.4549C40.4095 41.9998 41.9998 40.4095 41.9998 38.4549V21.5683C41.9998 21.3591 41.9319 21.1555 41.8064 20.9882ZM11.4039 26.1459C10.7756 25.5176 10.7756 24.4954 11.4039 23.8671L23.0255 12.2455L31.7986 10.9922L33.5077 12.7013L32.1405 14.0685L31.4568 13.3849C31.0793 13.0074 30.4672 13.0074 30.0896 13.3849C29.712 13.7624 29.712 14.3746 30.0896 14.7521L32.8241 17.4867C33.0129 17.6754 33.2604 17.7699 33.5077 17.7699C33.7551 17.7699 34.0026 17.6754 34.1913 17.4867C34.5689 17.1092 34.5689 16.497 34.1913 16.1194L33.5077 15.4358L34.8749 14.0685L36.584 15.7776L35.3306 24.5508L23.7091 36.1724C23.4048 36.4767 23.0001 36.6443 22.5697 36.6443C22.1393 36.6443 21.7347 36.4767 21.4303 36.1724L11.4039 26.1459ZM40.0662 38.4549C40.0662 39.3433 39.3433 40.0662 38.4549 40.0662H24.2753C23.4268 40.0662 22.73 39.407 22.6688 38.5738C23.5432 38.5496 24.4104 38.2056 25.0763 37.5396L36.9258 25.6901C37.0737 25.5422 37.1697 25.3503 37.1993 25.1433L38.0483 19.2001L40.0662 21.8905V38.4549Z" fill="#231F1C"/>
</svg>
