<svg width="20" height="20" viewBox="0 0 20 20" fill="none" xmlns="http://www.w3.org/2000/svg">
<path d="M15.1032 11.0489C15.0357 10.5904 14.6735 10.2329 14.2072 10.1263C12.3948 9.71106 11.9404 8.69081 11.8638 7.55919C11.5423 7.50075 10.9706 7.4375 10 7.4375C9.02945 7.4375 8.45766 7.50075 8.13625 7.55919C8.05959 8.69081 7.60526 9.71106 5.79284 10.1263C5.32655 10.2336 4.96435 10.5904 4.89683 11.0489L4.54729 13.4153C4.42421 14.2486 5.05015 15 5.92084 15H14.0792C14.9492 15 15.5758 14.2486 15.4527 13.4153L15.1032 11.0489ZM10 13.2758C9.0189 13.2758 8.22346 12.5057 8.22346 11.557C8.22346 10.6082 9.0189 9.83825 10 9.83825C10.9811 9.83825 11.7765 10.6082 11.7765 11.557C11.7765 12.5057 10.9804 13.2758 10 13.2758ZM16.9979 6.75C16.981 5.71875 14.2958 4.00069 10 4C5.70352 4.00069 3.01831 5.71875 3.00213 6.75C2.98596 7.78125 3.0169 9.12325 4.78501 8.89981C6.85342 8.63788 6.72613 7.93181 6.72613 6.92256C6.72613 6.21856 8.40843 6.04875 10 6.04875C11.5916 6.04875 13.2732 6.21856 13.2739 6.92256C13.2739 7.93181 13.1466 8.63788 15.215 8.89981C16.9824 9.12325 17.0141 7.78125 16.9979 6.75Z" fill="white"/>
</svg>
