<svg width="24" height="24" viewBox="0 0 24 24" fill="none" xmlns="http://www.w3.org/2000/svg">
<path d="M18.4625 17.6016L14.4047 13.5437C15.0344 12.7297 15.375 11.7344 15.375 10.6875C15.375 9.43438 14.8859 8.25937 14.0016 7.37344C13.1172 6.4875 11.9391 6 10.6875 6C9.43594 6 8.25781 6.48906 7.37344 7.37344C6.4875 8.25781 6 9.43438 6 10.6875C6 11.9391 6.48906 13.1172 7.37344 14.0016C8.25781 14.8875 9.43438 15.375 10.6875 15.375C11.7344 15.375 12.7281 15.0344 13.5422 14.4062L17.6 18.4625C17.6119 18.4744 17.626 18.4838 17.6416 18.4903C17.6571 18.4967 17.6738 18.5001 17.6906 18.5001C17.7075 18.5001 17.7241 18.4967 17.7397 18.4903C17.7552 18.4838 17.7694 18.4744 17.7812 18.4625L18.4625 17.7828C18.4744 17.7709 18.4838 17.7568 18.4903 17.7412C18.4967 17.7257 18.5001 17.709 18.5001 17.6922C18.5001 17.6754 18.4967 17.6587 18.4903 17.6431C18.4838 17.6276 18.4744 17.6135 18.4625 17.6016ZM13.1625 13.1625C12.5 13.8234 11.6219 14.1875 10.6875 14.1875C9.75312 14.1875 8.875 13.8234 8.2125 13.1625C7.55156 12.5 7.1875 11.6219 7.1875 10.6875C7.1875 9.75312 7.55156 8.87344 8.2125 8.2125C8.875 7.55156 9.75312 7.1875 10.6875 7.1875C11.6219 7.1875 12.5016 7.55 13.1625 8.2125C13.8234 8.875 14.1875 9.75312 14.1875 10.6875C14.1875 11.6219 13.8234 12.5016 13.1625 13.1625Z" fill="white"/>
</svg>
