<svg width="20" height="20" viewBox="0 0 20 20" fill="none" xmlns="http://www.w3.org/2000/svg">
<path d="M10.5 5C7.46257 5 5 7.46257 5 10.5C5 13.5374 7.46257 16 10.5 16C13.5374 16 16 13.5374 16 10.5C16 7.46257 13.5374 5 10.5 5ZM13.0385 11.3462H10.5C10.3878 11.3462 10.2802 11.3016 10.2008 11.2222C10.1215 11.1429 10.0769 11.0353 10.0769 10.9231V7.11538C10.0769 7.00318 10.1215 6.89557 10.2008 6.81622C10.2802 6.73688 10.3878 6.69231 10.5 6.69231C10.6122 6.69231 10.7198 6.73688 10.7992 6.81622C10.8785 6.89557 10.9231 7.00318 10.9231 7.11538V10.5H13.0385C13.1507 10.5 13.2583 10.5446 13.3376 10.6239C13.417 10.7033 13.4615 10.8109 13.4615 10.9231C13.4615 11.0353 13.417 11.1429 13.3376 11.2222C13.2583 11.3016 13.1507 11.3462 13.0385 11.3462Z" fill="#231F1C"/>
</svg>
